<svg width="135" height="28" viewBox="0 0 135 28" fill="none" xmlns="http://www.w3.org/2000/svg">
<path d="M106.031 22.8593L106.273 26.8204C105.645 27.1585 103.954 27.3035 103.133 27.3035C98.8819 27.3035 95.8386 24.6466 95.742 19.961H100.234C100.428 21.9415 101.973 23.1492 103.809 23.1492C104.244 23.1009 105.645 22.9559 106.031 22.8593ZM45.0693 27.0136H49.5617V2.03955H45.0693V27.0136ZM84.5351 11.2176C86.6605 11.2176 88.4478 12.2804 89.269 13.8262L93.0369 11.7007C91.5877 8.8024 88.3512 6.91843 84.5351 6.91843C78.6901 6.91843 74.2459 11.3626 74.2459 17.2076C74.2459 23.0526 78.7384 27.4001 84.5834 27.4001C88.2063 27.4001 91.2979 25.7577 93.0369 23.1492L89.269 20.8305C88.3029 22.2314 86.5639 23.1009 84.5834 23.1009C81.202 23.1009 78.6901 20.5407 78.6901 17.1593C78.6901 13.7779 81.1537 11.2176 84.5351 11.2176ZM42.5091 16.2898C42.5091 11.0244 38.3548 6.91843 33.0411 6.91843C27.3411 6.91843 22.8969 11.3626 22.8969 17.0626C22.8969 22.9559 27.4377 27.4001 33.1377 27.4001C37.1954 27.4001 40.5285 25.806 41.9777 23.1492L38.4031 20.8305C37.4853 22.3763 35.4564 23.3424 33.2344 23.3424C30.0462 23.3424 27.8724 21.4102 27.3894 18.222H42.3641C42.4608 17.594 42.5091 16.8211 42.5091 16.2898ZM27.5343 14.7923C28.2106 12.2321 30.0945 10.5897 32.7996 10.5897C35.5047 10.5897 37.5336 12.3287 37.7751 14.7923H27.5343ZM71.734 16.2898C71.734 11.0244 67.5798 6.91843 62.2661 6.91843C56.566 6.91843 52.1219 11.3626 52.1219 17.0626C52.1219 22.9559 56.6627 27.4001 62.3627 27.4001C66.4204 27.4001 69.7535 25.806 71.2027 23.1492L67.6281 20.8305C66.7103 22.3763 64.6814 23.3424 62.4593 23.3424C59.2712 23.3424 57.0974 21.4102 56.6143 18.222H71.5891C71.6857 17.594 71.734 16.8211 71.734 16.2898ZM56.711 14.7923C57.3872 12.2321 59.2712 10.5897 61.9763 10.5897C64.6814 10.5897 66.7103 12.3287 66.9518 14.7923H56.711ZM127.624 16.2898C127.624 11.0244 123.47 6.91843 118.156 6.91843C112.456 6.91843 108.012 11.3626 108.012 17.0626C108.012 22.9559 112.552 27.4001 118.252 27.4001C122.31 27.4001 125.643 25.806 127.092 23.1492L123.518 20.8305C122.6 22.3763 120.571 23.3424 118.349 23.3424C115.161 23.3424 112.987 21.4102 112.504 18.222H127.479C127.576 17.594 127.624 16.8211 127.624 16.2898ZM112.649 14.7923C113.325 12.2321 115.209 10.5897 117.914 10.5897C120.619 10.5897 122.648 12.3287 122.89 14.7923H112.649ZM130.184 27.0136H134.676V2.03955H130.184V27.0136ZM14.8782 22.3763C13.8154 23.0526 12.5112 23.3907 11.0137 23.3907C9.41962 23.3907 8.01876 22.9559 6.81111 22.0864C5.60347 21.2169 4.83058 20.0576 4.44413 18.5118L0 19.1881C0.241529 20.8305 0.869504 22.2797 1.83562 23.5356C2.80173 24.7916 4.05768 25.7094 5.60347 26.3857C7.14925 27.0619 8.83995 27.4001 10.7239 27.4001C12.5595 27.4001 14.2502 27.1102 15.796 26.4823C17.3418 25.8543 18.5494 24.9365 19.5155 23.7288C20.3367 22.6661 20.7715 21.4102 20.8681 19.961H16.424C16.3273 20.9271 15.8443 21.7483 14.8782 22.3763Z" fill="#092433"/>
<path d="M100.185 18.2215H95.693V11.5553V7.30439V2.03906H100.185V7.30439H106.079V11.5553H100.185V18.2215ZM19.8046 15.4681C19.08 14.5019 18.2105 13.8257 17.2444 13.3426C16.2783 12.9079 15.1673 12.5214 13.9596 12.1833L9.32226 10.8307C8.16292 10.5409 7.24512 10.1544 6.52053 9.7197C5.84425 9.2849 5.4578 8.6086 5.4578 7.69083C5.4578 7.01455 5.69933 6.43488 6.13408 5.90352C6.56883 5.37215 7.19681 4.98571 7.9697 4.69587C8.74259 4.40604 9.56379 4.30943 10.385 4.30943C11.7859 4.35773 12.9935 4.74418 14.0562 5.51707C15.119 6.28996 15.7952 7.35269 16.0851 8.6569L20.6741 7.88406C20.2877 6.28996 19.6114 4.8891 18.6936 3.77806C17.7758 2.66703 16.6164 1.79753 15.1673 1.21786C13.7664 0.638189 12.1723 0.300049 10.4333 0.300049C8.69429 0.348349 7.1002 0.589879 5.65103 1.21786C4.20185 1.79753 3.09082 2.66703 2.26962 3.82637C1.44842 4.9374 1.01367 6.33827 1.01367 7.93236C1.01367 9.9129 1.54504 11.4104 2.65607 12.3765C3.7671 13.3426 5.11966 14.0672 6.76206 14.5019L13.5249 16.5308C14.5393 16.8206 15.2639 17.2554 15.7469 17.7384C15.8918 17.8833 15.9885 18.0283 16.0851 18.2215H20.819C20.7224 17.1105 20.336 16.1926 19.8046 15.4681Z" fill="#EB4247"/>
</svg>
